<?xml version="1.0" standalone="no"?>
<!DOCTYPE svg PUBLIC "-//W3C//DTD SVG 20010904//EN"
 "http://www.w3.org/TR/2001/REC-SVG-20010904/DTD/svg10.dtd">
<svg version="1.0" xmlns="http://www.w3.org/2000/svg"
 width="150.000000pt" height="50.000000pt" viewBox="0 0 150.000000 50.000000"
 preserveAspectRatio="xMidYMid meet">
<metadata>
Created by potrace 1.16, written by Peter Selinger 2001-2019
</metadata>
<g transform="translate(0.000000,50.000000) scale(0.100000,-0.100000)"
fill="#000000" stroke="none">
<path d="M0 250 l0 -250 750 0 750 0 0 250 0 250 -750 0 -750 0 0 -250z m600
-96 c0 -2 -6 -4 -12 -3 -7 0 -41 57 -74 127 l-62 127 -60 -127 c-34 -71 -66
-128 -72 -128 -17 0 -12 14 61 166 l72 148 73 -153 c41 -84 74 -155 74 -157z
m534 295 c34 -16 52 -60 35 -91 -7 -12 -19 -28 -27 -33 -11 -9 -9 -13 12 -23
47 -21 47 -98 -1 -129 -20 -13 -53 -19 -128 -21 l-100 -4 -115 126 -115 125
-3 -124 c-4 -182 -22 -159 -22 28 l0 152 115 -120 114 -120 1 123 0 122 105 0
c57 0 115 -5 129 -11z m256 -4 c16 -8 41 -31 56 -51 53 -69 30 -180 -47 -223
-47 -27 -81 -27 -128 0 -99 55 -100 211 -2 268 43 24 81 26 121 6z m-1100
-145 c0 -93 -4 -150 -10 -150 -6 0 -10 45 -11 113 l0 112 -57 -113 -57 -112
-52 102 -52 103 0 -102 c-1 -62 -5 -103 -11 -103 -6 0 -10 56 -10 148 l0 147
36 -64 c20 -36 40 -75 44 -86 5 -12 17 -36 28 -53 l19 -32 64 120 c35 66 65
120 66 120 2 0 3 -67 3 -150z"/>
<path d="M1285 365 c-35 -34 -34 -88 1 -120 34 -32 68 -32 99 0 50 49 17 145
-50 145 -14 0 -37 -11 -50 -25z"/>
</g>
</svg>
