<?xml version="1.0" encoding="utf-8"?>
<!-- Generator: Adobe Illustrator 27.0.0, SVG Export Plug-In . SVG Version: 6.00 Build 0)  -->
<svg version="1.1" id="Capa_1" xmlns="http://www.w3.org/2000/svg" xmlns:xlink="http://www.w3.org/1999/xlink" x="0px" y="0px"
	 viewBox="0 0 1220 720" style="enable-background:new 0 0 1220 720;" xml:space="preserve">
<style type="text/css">
	.st0{fill:#FFFFFF;}
	.st1{font-family:'Arial-Black';}
	.st2{font-size:260px;}
	.st3{font-family:'ArimaKoshi-Regular';}
	.st4{font-size:140px;}
</style>
<g>
	<g>
		<path class="st0" d="M197.41,117.08c0-35.62,0.26-69.68,1.04-87.88h-0.78c-7.28,24.44-44.2,114.14-67.34,171.6h-13.78
			C99.13,156.34,60.91,56.5,52.59,28.94h-0.52c1.3,20.8,1.82,63.18,1.82,94.38v77.48H39.85v-182h21.06
			c24.96,62.4,56.42,144.04,63.18,164.58h0.52c4.16-13.26,40.56-104,66.04-164.58h20.8v182h-14.04V117.08z"/>
	</g>
</g>
<g>
	<g>
		<path class="st0" d="M349.66,17.69l67.83,181.91l-15.08,0.02l-35.48-95.11c-10.18-27.55-21.65-57.95-25.57-73.29l-0.52,0
			c-3.88,13.52-16.32,45.52-26.43,72.31l-36.54,96.24l-14.82,0.02l69.97-182.09L349.66,17.69z"/>
	</g>
</g>
<g>
	<g>
		<path class="st0" d="M482.61,17.6v182h-14.04v-182H482.61z"/>
	</g>
</g>
<g>
	<g>
		<path class="st0" d="M564.26,199.6v-182h20.8c28.34,43.68,94.9,145.34,106.34,165.1h0.26c-1.56-26.26-1.3-53.04-1.3-82.68V17.6
			h14.3v182h-19.24c-27.04-42.12-94.64-147.94-107.64-167.96h-0.26c1.3,23.92,1.04,50.44,1.04,83.46v84.5H564.26z"/>
	</g>
</g>
<text transform="matrix(1 0 0 1 756.7245 199.601)" class="st0 st1 st2">B</text>
<text transform="matrix(1 0 0 1 988.4857 196.4828)" class="st0 st1 st2">O</text>
<text transform="matrix(1 0 0 1 189.8921 313.6033)" class="st0 st3 st4">M</text>
<text transform="matrix(1 0 0 1 458.2472 315.4221)" class="st0 st3 st4">O</text>
<text transform="matrix(1 0 0 1 695.7871 311.7854)" class="st0 st3 st4">D</text>
<text transform="matrix(1 0 0 1 927.4164 311.7852)" class="st0 st3 st4">A</text>
</svg>
